<?xml version="1.0" standalone="no"?><!DOCTYPE svg PUBLIC "-//W3C//DTD SVG 1.1//EN" "http://www.w3.org/Graphics/SVG/1.1/DTD/svg11.dtd"><svg t="1635390174848" class="icon" viewBox="0 0 1024 1024" version="1.1" xmlns="http://www.w3.org/2000/svg" p-id="11677" xmlns:xlink="http://www.w3.org/1999/xlink" width="200" height="200"><defs><style type="text/css"></style></defs><path d="M953.2 909.1H70.7c-4 0-7.2-3.2-7.2-7.2V224.8c0-4 3.2-7.2 7.2-7.2h882.4c4 0 7.2 3.2 7.2 7.2V902c0.1 3.9-3.2 7.1-7.1 7.1z" fill="#FAB001" p-id="11678"></path><path d="M155.4 217.6c-50.7 0-91.8 41.1-91.8 91.8v507.9c0 11.8 2.3 23 6.3 33.3 3.9 0.5 7.8 0.8 11.8 0.8h713.2c50.7 0 91.8-41.1 91.8-91.8V251.8c0-11.8-2.3-23-6.3-33.3-3.9-0.5-7.8-0.8-11.8-0.8H155.4z" fill="#F9E48A" p-id="11679"></path><path d="M886.7 759.7V251.8c0-11.8-2.3-23-6.3-33.3-3.9-0.5-7.8-0.8-11.8-0.8H248.3c-50.7 0-91.8 41.1-91.8 91.8v507.9c0 11.8 2.3 23 6.3 33.3 3.9 0.5 7.8 0.8 11.8 0.8h620.3c50.7 0 91.8-41.1 91.8-91.8z" fill="#FECE0A" p-id="11680"></path><path d="M730.3 402.4c-21.7-21.7-56.9-21.7-78.6 0L505.5 548.6l-69-69c-21.7-21.7-56.9-21.7-78.6 0-21.7 21.7-21.7 56.9 0 78.6l106.2 106.2c0.6 0.7 1.1 1.5 1.8 2.2 21.7 21.7 56.9 21.7 78.6 0L730.3 481c21.7-21.7 21.7-56.9 0-78.6z" fill="#52C5F8" p-id="11681"></path><path d="M417.1 113v209.2c0 2.3-1.9 4.2-4.2 4.2h-98.3c-2.3 0-4.2-1.9-4.2-4.2V113c0-2.3 1.9-4.2 4.2-4.2H413c2.3 0 4.1 1.9 4.1 4.2z" fill="#FE6A19" p-id="11682"></path><path d="M353.7 109.9c-24.6 4.7-43.1 26.3-43.1 52.3v111c0 26 18.6 47.5 43.1 52.3 24.6-4.7 43.1-26.3 43.1-52.3v-111c0-26-18.5-47.6-43.1-52.3z" fill="#FF9843" p-id="11683"></path><path d="M361.7 112.1c-20.5 7.4-35.1 26.9-35.1 50v111c0 23 14.7 42.6 35.1 50 20.5-7.4 35.1-26.9 35.1-50v-111c0-23-14.6-42.5-35.1-50z" fill="#FC8308" p-id="11684"></path><path d="M732.6 113v209.2c0 2.3-1.9 4.2-4.2 4.2h-98.3c-2.3 0-4.2-1.9-4.2-4.2V113c0-2.3 1.9-4.2 4.2-4.2h98.3c2.3 0 4.2 1.9 4.2 4.2z" fill="#FE6A19" p-id="11685"></path><path d="M669.2 109.9c-24.6 4.7-43.1 26.3-43.1 52.3v111c0 26 18.6 47.5 43.1 52.3 24.6-4.7 43.1-26.3 43.1-52.3v-111c0-26-18.6-47.6-43.1-52.3z" fill="#FF9843" p-id="11686"></path><path d="M677.2 112.1c-20.5 7.4-35.1 26.9-35.1 50v111c0 23 14.7 42.6 35.1 50 20.5-7.4 35.1-26.9 35.1-50v-111c0-23-14.7-42.5-35.1-50z" fill="#FC8308" p-id="11687"></path></svg>