<?xml version="1.0" standalone="no"?><!DOCTYPE svg PUBLIC "-//W3C//DTD SVG 1.1//EN" "http://www.w3.org/Graphics/SVG/1.1/DTD/svg11.dtd"><svg t="1634691017939" class="icon" viewBox="0 0 1024 1024" version="1.1" xmlns="http://www.w3.org/2000/svg" p-id="1332" xmlns:xlink="http://www.w3.org/1999/xlink" width="200" height="200"><defs><style type="text/css"></style></defs><path d="M269.2096 8.8064h485.4272c3.2768 0.7168 6.6048 1.28 9.7792 2.2528 14.336 4.5056 28.5184 19.0464 28.4672 41.8816-0.256 77.6192-0.1024 155.2384-0.1024 232.8576 0 3.1744-0.1024 6.3488-0.6144 9.472-3.1744 19.712-20.6336 34.6624-41.728 34.5088-61.696-0.3584-123.392-0.1024-185.088-0.1024h-4.3008v16.896h4.2496c15.8208 0 31.6416-0.0512 47.4624 0 13.8752 0.0512 22.1696 8.448 22.1696 22.3232v25.1392h5.2224c101.7856 0 203.5712 0 305.3568 0.0512 4.608 0 9.3184 0.2048 13.7728 1.28 23.0912 5.376 38.9632 25.5488 39.0144 49.664 0.1024 38.912 0.0512 77.824 0 116.736 0 3.0208-0.256 6.0928-0.768 9.1136-3.4304 22.0672-22.4256 40.1408-44.6976 41.5744-13.3632 0.8704-26.7776 0.3584-40.1408 0.4608h-4.1984v357.1712c0 1.792 0 3.584-0.0512 5.376-0.512 18.7392-13.7216 34.5088-32.1536 38.4-2.1504 0.4608-4.3008 0.8192-6.5024 1.2288h-59.4944c-0.9216-0.2048-1.8432-0.512-2.7648-0.6144a38.81984 38.81984 0 0 1-20.2752-8.1408c-11.008-8.6016-16.0256-20.0192-15.9744-33.8432v-98.0992-3.7888c-3.4816 0.256-6.5024 0.6656-9.5744 0.6656-89.5488 0.0512-179.0976 0.0512-268.6464-0.0512-4.864 0-9.9328-0.8192-14.592-2.2528-21.4528-6.4512-35.6864-26.3168-35.6864-49.4592-0.0512-67.2768 0-134.6048 0-201.8816v-4.352H260.7616V975.1552c-0.512 18.8928-13.7728 34.816-32.256 38.7584-2.2528 0.4608-4.5568 0.8192-6.8096 1.2288H154.624c-1.9456-0.3072-3.9424-0.6144-5.888-0.9728-19.968-4.0448-33.28-20.2752-33.28-40.7552v-355.9936-4.4544h-4.3008c-11.6224 0-23.1936 0.0512-34.816 0-28.16-0.1536-50.6368-22.528-50.688-50.688-0.1024-39.2192-0.0512-78.4896 0-117.7088 0-6.8096 1.28-13.4656 4.1472-19.6608 9.472-20.3264 25.3952-30.8224 47.9744-30.8224h311.2448c0-8.5504 0.2048-16.6912-0.0512-24.7808-0.4096-12.4928 8.2944-23.1424 22.5792-22.784 15.7184 0.4096 31.4368 0.1024 47.1552 0.1024h4.1472v-16.896h-4.6592c-61.9008 0-123.8016 0.0512-185.7536 0-22.6816 0-41.1648-17.8688-41.1648-40.1408-0.1024-80.0768-0.1024-160.1024 0-240.1792 0-18.0736 13.0048-34.4576 30.5152-39.0144 2.5088-0.6656 4.9664-1.0752 7.424-1.5872zM426.496 449.6896H517.3248c43.5712 0 87.1424-0.0512 130.7136 0 24.064 0.0512 41.7792 17.5104 42.0864 41.5744 0.1024 8.6528 0.256 17.3056-0.1024 25.9584-0.2048 4.2496-0.9728 8.6528-2.3552 12.6464-5.9904 17.3568-21.248 27.4944-40.8576 27.4944H172.1344c-1.0752 0-2.0992 0-3.1744-0.0512-22.784-0.768-40.0384-18.432-40.2432-41.216-0.1024-8.448-0.1024-16.896 0.0512-25.2928 0.0512-3.1232 0.3584-6.3488 1.0752-9.3696 4.7104-19.4048 20.6848-31.6928 41.1136-31.6928H385.536v-14.2848H78.08c-8.2944 0-11.9296 3.6352-11.9296 12.032v112.0256c0 8.5504 3.584 12.0832 12.1344 12.0832h867.6864c8.3968 0 11.9808-3.5328 11.9808-11.8784V447.3856c0-8.2944-3.6352-11.8784-11.9808-11.8784h-88.2688c-0.7168 0-1.6384-0.256-2.2016 0.0512-0.8192 0.4608-1.8944 1.28-1.9968 1.9968-0.2048 2.9184 0 5.888-0.1536 8.8576-0.1024 2.1504 0.6144 3.328 2.56 4.4544 12.9024 7.68 20.992 18.9952 22.6816 33.9456 1.0752 9.472 0.6656 19.1488 0.6144 28.7232 0 4.3008-0.3584 8.6528-1.28 12.8512-4.7616 21.4528-24.832 36.9664-46.2848 36.096-22.3232-0.9216-41.472-17.92-43.9296-39.936-1.1264-10.3424-0.8192-20.8384-0.6656-31.2832 0.1536-15.5136 6.2976-28.5696 19.0976-37.3248 5.5808-3.84 7.5264-7.68 6.8608-13.9776-0.4608-4.4544-0.1024-4.4544-4.4544-4.4544h-150.016c-7.7824 0-15.616-0.0512-23.3984 0.0512-1.1776 0-2.8672 0.4608-3.4816 1.3312-4.864 6.8096-11.52 9.2672-19.712 9.2672-60.416-0.1024-120.8832-0.0512-181.2992-0.0512h-4.096c-0.0512 1.28-0.0512 2.2016-0.0512 3.584z m344.8832 291.4304H483.4816v77.4144c0 7.8336 3.584 11.264 11.4688 11.264h264.8064c8.1408 0 11.5712-3.4304 11.5712-11.4688v-73.728c0.0512-1.0752 0.0512-2.2016 0.0512-3.4816z m-551.424-127.9488c-1.3312-0.0512-2.4576-0.1536-3.584-0.1536-18.8928 0-37.7344 0.0512-56.6272-0.0512-3.072 0-3.84 0.8704-3.84 3.8912 0.0512 117.6064 0.0512 235.1616 0 352.768 0 3.072 0.8704 3.8912 3.8912 3.8912 18.8928-0.1024 37.7344-0.0512 56.6272-0.0512h3.5328v-360.2944zM752.0768 50.5344H276.0704c-4.352 0-4.352 0-4.352 4.1984V288.1024h480.3584V50.5344z m115.7632 922.7264v-359.9872h-55.5008v359.9872h55.5008z m-96.6144-359.9872H483.7888v85.8624h287.4368v-85.8624z m-121.856-97.6384v-24.2688h-48.4864v24.2688h48.4864z m-479.9488-24.3712v24.5248c14.6944 0 29.1328 0.0512 43.5712-0.1024 0.6144 0 1.6896-1.6384 1.6896-2.5088 0.1536-6.1952-0.0512-12.4416 0.1536-18.688 0.1024-2.9184-0.9728-3.4816-3.6352-3.4816-12.8512 0.1024-25.7536 0.0512-38.6048 0.0512-1.024 0.0512-2.048 0.1536-3.1744 0.2048z m260.5056-97.1776h63.232c32.5632 0 65.1776-0.0512 97.7408 0.0512 2.7136 0 3.6864-0.6144 3.6352-3.5328-0.0512-3.1744-2.048-2.6112-3.84-2.6112h-160.768v6.0928zM283.6992 491.1104c-9.1648 0-17.9712-0.0512-26.7776 0.1024-0.5632 0-1.5872 1.6896-1.6384 2.56-0.1536 6.4 0 12.8512-0.1024 19.2512-0.0512 2.304 0.8704 2.816 2.9696 2.7648 6.8608-0.1024 13.6704-0.0512 20.5312-0.0512h5.0176v-24.6272z m68.9664 0c-9.0624 0-17.7664-0.0512-26.4704 0.1024-0.6656 0-1.792 1.3824-1.792 2.0992-0.1536 6.7072-0.0512 13.4656-0.1024 20.224 0 1.8432 0.768 2.3552 2.4576 2.304 5.4784-0.0512 10.9568 0 16.4352 0h9.5232c-0.0512-8.3456-0.0512-16.2816-0.0512-24.7296z m68.9664 24.7296v-24.7296c-9.0112 0-17.7664-0.0512-26.4704 0.1024-0.6144 0-1.6896 1.2288-1.6896 1.9456-0.1536 6.8608-0.0512 13.7216-0.1024 20.5824 0 1.9968 1.1264 2.1504 2.6624 2.1504 4.9664-0.0512 9.9328 0 14.848 0 3.5328-0.0512 7.0656-0.0512 10.752-0.0512z m69.12-24.576h-28.0576v24.3712h28.0576v-24.3712z m69.0688 0.0512h-28.0064v24.2688h28.0064v-24.2688z m278.9888 12.288c0-3.6864 0.0512-7.3728 0-11.0592-0.0512-3.7888-2.4064-6.4-5.5296-6.4512-3.2768-0.0512-5.7344 2.6624-5.7344 6.6048-0.0512 7.2704-0.0512 14.5408 0 21.8112 0.0512 3.7888 2.3552 6.4 5.5296 6.4512 3.2768 0.0512 5.6832-2.6112 5.7344-6.5536 0.0512-3.6352 0-7.2192 0-10.8032zM504.0128 329.8816v16.6912c4.9664 0 9.7792 0.0512 14.592-0.0512 0.5632 0 1.536-0.9216 1.5872-1.4336 0.1024-5.0176 0.0512-10.0352 0.0512-15.2064h-16.2304z" p-id="1333"></path><path d="M512.2048 63.1808h180.0704c20.736 0 36.7616 13.0048 41.0112 33.3312 0.6144 2.8672 0.8704 5.8368 0.8704 8.8064 0.0512 42.8032 0.1024 85.6576 0 128.4608-0.0512 20.1728-13.1584 36.7104-32.4096 41.0112-3.072 0.6656-6.2464 0.9728-9.4208 0.9728-120.2688 0.0512-240.4864 0.0512-360.7552 0.0512-23.2448 0-41.4208-17.5104-41.5744-40.8064-0.3072-43.6736-0.256-87.3472 0-131.0208 0.1024-20.5312 14.1312-36.7104 34.2016-40.3456 2.6624-0.4608 5.4784-0.4608 8.192-0.4608h179.8144zM330.6496 233.984h362.5984V104.8576H330.6496V233.984zM627.456 671.5904h-90.7776c-8.2432 0-14.4896-3.584-18.2784-10.8032-3.84-7.2704-3.4816-14.6944 1.1264-21.6064 3.84-5.8368 9.472-8.8576 16.5376-8.9088 8.8576-0.0512 17.7152 0 26.5728 0h154.9824c10.0864 0 17.664 5.3248 20.48 14.2336 4.352 13.7728-5.4272 27.0336-20.1216 27.0336-30.208 0.1024-60.3648 0.0512-90.5216 0.0512z" p-id="1334"></path></svg>